<svg width="74" height="74" viewBox="0 0 74 74" fill="none" xmlns="http://www.w3.org/2000/svg">
<path d="M20 33.9167C20 29.5138 20.0032 26.3625 20.3253 23.9668C20.6416 21.6142 21.2404 20.2161 22.2699 19.1866C23.2994 18.1571 24.6975 17.5583 27.0501 17.242C29.4458 16.9199 32.5971 16.9167 37 16.9167H46.25C50.6529 16.9167 53.8042 16.9199 56.1999 17.242C58.5525 17.5583 59.9506 18.1571 60.9801 19.1866C62.0096 20.2161 62.6084 21.6142 62.9247 23.9668C63.2468 26.3625 63.25 29.5138 63.25 33.9167V49.3334C63.25 53.7363 63.2468 56.8875 62.9247 59.2832C62.6084 61.6358 62.0096 63.034 60.9801 64.0634C59.9506 65.0929 58.5525 65.6918 56.1999 66.0081C53.8042 66.3302 50.6529 66.3334 46.25 66.3334H37C32.5971 66.3334 29.4458 66.3302 27.0501 66.0081C24.6975 65.6918 23.2994 65.0929 22.2699 64.0634C21.2404 63.034 20.6416 61.6358 20.3253 59.2832C20.0032 56.8875 20 53.7363 20 49.3334V33.9167Z" fill="#E4F9E1" stroke="#E4F9E1" stroke-width="3"/>
<path opacity="0.5" d="M18.5 58.5834C13.3914 58.5834 9.25 54.442 9.25 49.3334V30.8334C9.25 19.2054 9.25 13.3914 12.8623 9.77904C16.4747 6.16669 22.2887 6.16669 33.9167 6.16669H46.25C51.3586 6.16669 55.5 10.3081 55.5 15.4167" stroke="#E4F9E1" stroke-width="3"/>
</svg>
