<svg width="74" height="74" viewBox="0 0 74 74" fill="none" xmlns="http://www.w3.org/2000/svg">
<path d="M37.2433 6.9375C22.4633 6.9375 10.3131 18.2318 9.12839 32.6319H6.16676C5.22978 32.6319 4.38541 33.1973 4.02855 34.0637C3.67169 34.93 3.87287 35.9261 4.53801 36.586L9.71743 41.7249C10.619 42.6195 12.0733 42.6195 12.9749 41.7249L18.1543 36.586C18.8195 35.9261 19.0207 34.93 18.6638 34.0637C18.3069 33.1973 17.4626 32.6319 16.5256 32.6319H13.7727C14.9434 20.8176 24.9898 11.5625 37.2433 11.5625C45.7827 11.5625 53.2575 16.0594 57.3981 22.7944C58.0669 23.8824 59.4912 24.2222 60.5792 23.5533C61.6672 22.8845 62.0069 21.4602 61.3381 20.3722C56.3851 12.3157 47.4443 6.9375 37.2433 6.9375Z" fill="#E4F9E1"/>
<path opacity="0.5" d="M64.2604 32.272C63.3596 31.3816 61.9101 31.3816 61.0092 32.272L55.81 37.4109C55.143 38.0701 54.9402 39.0669 55.2966 39.9343C55.6529 40.8017 56.4978 41.3681 57.4356 41.3681H60.2078C59.0323 53.1758 48.951 62.4375 36.6387 62.4375C28.0594 62.4375 20.5533 57.9368 16.3973 51.2022C15.7265 50.1154 14.3017 49.778 13.2149 50.4488C12.128 51.1195 11.7907 52.5443 12.4614 53.6311C17.4336 61.6882 26.4061 67.0625 36.6387 67.0625C51.463 67.0625 63.6633 55.7751 64.8523 41.3681H67.834C68.7718 41.3681 69.6168 40.8017 69.9731 39.9343C70.3294 39.0669 70.1266 38.0701 69.4597 37.4109L64.2604 32.272Z" fill="#E4F9E1"/>
</svg>
