<svg id="Layer_1" data-name="Layer 1" xmlns="http://www.w3.org/2000/svg" xmlns:xlink="http://www.w3.org/1999/xlink" viewBox="0 0 1080 1080"><defs><style>.cls-1{fill:url(#linear-gradient);}.cls-2{fill:url(#linear-gradient-2);}.cls-3{fill:url(#linear-gradient-3);}.cls-4{fill:url(#linear-gradient-4);}</style><linearGradient id="linear-gradient" x1="908.83" y1="171.17" x2="171.17" y2="908.83" gradientTransform="translate(0 1080) rotate(-90)" gradientUnits="userSpaceOnUse"><stop offset="0" stop-color="#366641"/><stop offset="1" stop-color="#66ff82"/></linearGradient><linearGradient id="linear-gradient-2" x1="859.04" y1="220.96" x2="220.96" y2="859.04" gradientTransform="matrix(1, 0, 0, 1, 0, 0)" xlink:href="#linear-gradient"/><linearGradient id="linear-gradient-3" x1="607.05" y1="642.1" x2="303.81" y2="338.87" gradientUnits="userSpaceOnUse"><stop offset="0"/><stop offset="0.1" stop-color="#020503"/><stop offset="0.23" stop-color="#08150b"/><stop offset="0.37" stop-color="#122e18"/><stop offset="0.51" stop-color="#20512a"/><stop offset="0.67" stop-color="#317e42"/><stop offset="0.83" stop-color="#47b65f"/><stop offset="0.99" stop-color="#60f680"/><stop offset="1" stop-color="#61f982"/></linearGradient><linearGradient id="linear-gradient-4" x1="540" y1="277" x2="540" y2="803" gradientUnits="userSpaceOnUse"><stop offset="0" stop-color="#366842"/><stop offset="0.49" stop-color="#5ff17e"/><stop offset="0.57" stop-color="#5dec7c"/><stop offset="0.66" stop-color="#59dc75"/><stop offset="0.76" stop-color="#51c36a"/><stop offset="0.86" stop-color="#47a05b"/><stop offset="0.97" stop-color="#397347"/><stop offset="1" stop-color="#366842"/></linearGradient></defs><polygon class="cls-1" points="72.35 270 72.35 810 540 1080 1007.65 810 1007.65 270 540 0 72.35 270"/><polygon class="cls-2" points="773.55 135.47 306.44 135.47 72.89 540 306.44 944.53 773.55 944.53 1007.11 540 773.55 135.47"/><path class="cls-3" d="M355.67,287H654.21l70.12,70.12v167.7l-70.84,70.84H425.07V793h-69.4ZM623.13,536.39l32.53-31.81V378.08l-32.53-31.81H425.07V536.39Z"/><path class="cls-4" d="M654.21,287l70.12,70.12v167.7l-70.84,70.84H425.07V793h-69.4V287H654.21M425.07,536.39H623.13l32.53-31.81V378.08l-32.53-31.81H425.07V536.39M658.35,277H345.67V803h89.4V605.66H657.63l2.93-2.93,70.84-70.84,2.93-2.93V353l-2.93-2.93-70.12-70.12L658.35,277ZM435.07,356.27h184l26.61,26V500.37l-26.61,26h-184V356.27Z"/></svg>